<?xml version="1.0" standalone="no"?>
<!DOCTYPE svg PUBLIC "-//W3C//DTD SVG 20010904//EN"
 "http://www.w3.org/TR/2001/REC-SVG-20010904/DTD/svg10.dtd">
<svg version="1.0" xmlns="http://www.w3.org/2000/svg"
 width="840.000000pt" height="859.000000pt" viewBox="0 0 840.000000 859.000000"
 preserveAspectRatio="xMidYMid meet">

<g transform="translate(0.000000,859.000000) scale(0.100000,-0.100000)"
fill="#000000" stroke="none">
<path d="M1680 8284 c-17 -5 -50 -73 -50 -104 0 -11 -4 -20 -9 -20 -4 0 -11
-15 -15 -32 -3 -18 -13 -58 -22 -88 -18 -63 -39 -161 -56 -270 -16 -95 -16
-443 -1 -535 18 -107 33 -178 43 -200 4 -11 11 -31 13 -45 3 -14 11 -39 18
-56 11 -29 11 -34 -12 -55 -14 -13 -40 -44 -59 -69 -19 -25 -37 -47 -40 -50
-4 -3 -15 -20 -25 -37 -11 -18 -23 -33 -27 -33 -4 0 -8 -4 -8 -8 0 -5 -25 -47
-55 -93 -30 -46 -55 -90 -55 -96 0 -7 -4 -13 -10 -13 -5 0 -10 -4 -10 -9 0 -6
-17 -47 -39 -93 -21 -46 -46 -105 -56 -133 -9 -27 -21 -59 -25 -70 -19 -49
-43 -148 -66 -270 -56 -300 -31 -875 51 -1215 9 -36 20 -83 25 -106 5 -22 13
-51 18 -65 6 -13 18 -51 28 -84 10 -33 22 -64 26 -70 4 -5 8 -15 8 -21 0 -23
109 -256 123 -262 4 -2 7 -8 7 -13 0 -13 81 -143 91 -147 5 -2 9 -8 9 -14 0
-8 51 -80 70 -98 3 -3 22 -26 43 -53 47 -58 125 -136 202 -202 32 -27 64 -56
71 -63 7 -6 17 -12 22 -12 6 0 12 -3 14 -7 5 -12 136 -99 178 -119 8 -4 17
-10 20 -14 9 -11 232 -120 246 -120 8 0 14 -3 14 -8 0 -8 59 -30 103 -39 15
-3 27 -9 27 -13 0 -4 16 -11 36 -15 20 -3 44 -10 53 -15 22 -11 120 -40 137
-40 8 0 22 -4 32 -9 23 -11 151 -41 178 -41 11 0 24 -3 28 -7 7 -7 80 -21 231
-42 118 -17 210 -33 214 -36 2 -2 -16 -28 -40 -57 -24 -29 -47 -57 -52 -63 -4
-5 -16 -20 -26 -32 -16 -20 -71 -127 -109 -213 -8 -19 -19 -43 -23 -52 -5 -10
-9 -27 -9 -39 0 -11 -5 -30 -11 -41 -6 -11 -15 -46 -21 -77 -22 -132 -10 -117
-123 -156 -27 -9 -59 -21 -70 -25 -63 -25 -151 -43 -290 -61 -84 -11 -279 -5
-330 11 -16 4 -57 16 -90 25 -69 19 -83 24 -148 56 -82 41 -87 44 -87 51 0 5
-5 8 -11 8 -27 0 -222 180 -272 250 -30 42 -127 193 -127 197 0 2 -5 9 -10 16
-39 46 -50 61 -50 68 0 11 -166 176 -217 216 -23 18 -47 33 -52 33 -6 0 -11 4
-11 8 0 10 -120 72 -138 72 -7 0 -12 5 -12 10 0 6 -11 10 -25 10 -14 0 -25 4
-25 9 0 9 -71 27 -170 42 -162 24 -313 -27 -295 -101 8 -31 48 -85 93 -124 48
-42 110 -86 122 -86 5 0 10 -4 10 -10 0 -5 5 -10 11 -10 37 0 309 -271 309
-309 0 -5 3 -11 8 -13 12 -5 104 -156 138 -228 49 -100 84 -180 84 -188 0 -8
52 -114 60 -122 3 -3 22 -31 43 -62 44 -65 142 -168 207 -218 25 -19 47 -37
50 -41 3 -3 15 -9 28 -13 12 -4 22 -12 22 -17 0 -5 5 -9 10 -9 6 0 28 -11 50
-25 22 -14 46 -25 55 -25 8 0 15 -4 15 -9 0 -5 14 -13 32 -16 18 -4 39 -11 48
-15 50 -25 94 -40 114 -40 12 0 26 -3 30 -8 13 -13 148 -32 290 -42 156 -10
379 1 521 26 50 8 108 16 130 17 l40 2 5 -337 c4 -251 8 -340 18 -350 6 -6 12
-20 12 -29 0 -22 60 -153 71 -157 5 -2 9 -8 9 -14 0 -49 240 -268 295 -268 8
0 15 -4 15 -9 0 -5 14 -13 32 -16 18 -4 39 -11 48 -16 8 -4 45 -15 82 -23 57
-14 160 -16 696 -16 709 0 716 1 862 68 49 23 134 75 138 84 2 4 8 8 14 8 15
0 136 127 143 150 4 11 11 20 16 20 5 0 9 5 9 10 0 6 10 27 23 48 13 20 32 62
42 92 9 30 23 66 29 80 15 34 21 1264 6 1369 -20 147 -47 270 -61 286 -5 5 -9
18 -9 28 0 10 -6 31 -14 45 -7 15 -26 54 -42 87 -42 89 -86 156 -147 221 -31
33 -54 61 -52 62 2 2 34 8 72 13 65 9 100 15 280 42 45 6 85 15 89 20 4 4 18
7 31 7 21 0 47 6 183 41 69 17 155 42 175 49 11 4 43 16 70 25 28 9 64 23 82
31 17 8 35 14 40 14 5 0 33 11 61 25 29 14 56 25 62 25 5 0 10 5 10 10 0 6 6
10 13 10 13 0 98 42 157 79 19 12 43 24 53 27 9 4 17 9 17 13 0 4 16 15 35 25
19 11 35 23 35 28 0 4 5 8 11 8 9 0 82 51 99 70 3 3 21 18 40 34 61 49 154
140 190 186 35 44 49 62 89 109 12 13 21 27 21 31 0 3 8 15 18 26 23 27 41 55
48 77 4 9 10 17 14 17 5 0 12 10 16 23 4 12 9 24 13 27 10 9 101 198 129 270
5 14 17 42 26 63 9 21 16 44 16 52 0 9 4 23 9 33 17 33 41 117 41 143 0 14 4
29 9 35 5 5 14 38 21 74 6 36 15 88 21 115 5 28 14 93 20 145 5 52 14 115 20
140 13 63 14 615 1 676 -6 27 -16 78 -22 114 -17 108 -51 244 -63 256 -4 4 -7
15 -7 25 0 9 -7 30 -15 45 -8 16 -15 37 -15 47 0 9 -4 17 -10 17 -5 0 -10 7
-10 15 0 23 -102 230 -121 245 -4 3 -9 15 -13 28 -4 12 -12 22 -17 22 -5 0 -9
4 -9 10 0 19 -103 160 -168 229 -37 40 -42 50 -36 80 3 18 9 41 13 50 16 30
31 87 37 136 4 28 10 55 14 60 4 6 13 78 20 161 10 121 10 184 0 315 -7 90
-16 171 -20 179 -4 8 -10 37 -14 65 -3 27 -10 63 -16 80 -5 16 -16 57 -25 90
-19 70 -32 108 -51 152 -8 17 -14 36 -14 42 0 45 -212 40 -400 -9 -92 -24
-158 -43 -185 -55 -16 -6 -46 -18 -65 -25 -19 -7 -49 -19 -67 -26 -17 -8 -36
-14 -42 -14 -6 0 -11 -4 -11 -10 0 -5 -7 -10 -15 -10 -14 0 -85 -30 -95 -40
-11 -11 -73 -40 -86 -40 -8 0 -14 -4 -14 -9 0 -5 -10 -13 -22 -17 -13 -4 -25
-9 -28 -13 -3 -3 -27 -18 -55 -32 -85 -45 -120 -64 -125 -70 -3 -3 -21 -14
-40 -25 -19 -10 -39 -22 -45 -27 -5 -4 -37 -26 -69 -48 -62 -43 -62 -43 -151
-20 -111 28 -297 68 -380 81 -335 51 -508 65 -840 65 -263 0 -416 -10 -640
-39 -141 -19 -161 -23 -435 -76 -25 -4 -58 -13 -73 -19 -16 -6 -41 -11 -57
-11 -16 0 -32 -4 -35 -10 -14 -22 -58 -7 -142 49 -80 53 -168 105 -263 157
-19 10 -37 21 -40 24 -5 5 -134 69 -281 139 -36 17 -73 31 -82 31 -9 0 -18 4
-22 9 -3 5 -20 13 -37 17 -18 3 -39 10 -48 15 -14 7 -62 22 -155 47 -126 35
-322 53 -385 36z"/>
</g>
</svg>
