<?xml version="1.0" standalone="no"?>
<!DOCTYPE svg PUBLIC "-//W3C//DTD SVG 20010904//EN"
 "http://www.w3.org/TR/2001/REC-SVG-20010904/DTD/svg10.dtd">
<svg version="1.0" xmlns="http://www.w3.org/2000/svg"
 width="254.000000pt" height="160.000000pt" viewBox="0 0 254.000000 160.000000"
 preserveAspectRatio="xMidYMid meet">

<g transform="translate(0.000000,160.000000) scale(0.100000,-0.100000)"
fill="#000000" stroke="none">
<path d="M1738 1419 c-293 -43 -615 -278 -891 -651 -39 -54 -74 -92 -77 -85
-3 7 -4 121 -2 255 l3 242 154 0 154 0 79 63 c43 35 106 80 140 101 34 22 62
40 62 42 0 2 -279 4 -620 4 l-620 0 0 -105 0 -105 205 0 205 0 0 -535 0 -535
118 0 118 0 44 93 c187 390 462 732 730 908 200 131 350 180 552 180 106 -1
275 -26 308 -46 6 -4 10 -4 10 -2 0 8 -106 74 -162 100 -164 76 -335 102 -510
76z"/>
<path d="M2077 1181 c79 -22 122 -41 171 -78 18 -14 37 -21 45 -17 19 12 67
58 67 66 0 14 -149 40 -250 44 l-105 5 72 -20z"/>
<path d="M1545 999 c-44 -34 -118 -99 -165 -145 l-85 -84 6 -98 c25 -372 312
-611 709 -589 52 3 122 13 155 22 83 22 197 80 248 126 l42 38 -78 78 c-67 68
-79 76 -95 65 -120 -85 -220 -117 -346 -109 -149 8 -249 57 -328 162 -108 143
-109 410 -3 549 19 25 32 46 27 46 -4 0 -43 -28 -87 -61z"/>
</g>
</svg>
